# xmcd
#
# Track frame offsets: 
#        150
#        10269
#        23745
#        33589
#        47021
#        57114
#        69652
#        82613
#        94608
#        106393
#        119707
#        134997
#        146270
#        160201
#        171732
#        184122
#        197078
#        210242
#        223116
#        237013
#
# Disc length: 3322 seconds
#
# Revision: 3
# Processed by: cddbd v1.5.2PL0 Copyright (c) Steve Scherf et al.
# Submitted via: ExactAudioCopyFreeDBPlugin 1.0
#
DISCID=1c0cf814
DTITLE=Various Artist - VeeJay:  The Very Best of Blues [Rhino-Collec
DTITLE=tables box set]
DYEAR=2000
DGENRE=Blues
TTITLE0=Jimmy Reed - Ain't That Lovin' You Baby
TTITLE1=L.C. McKinley - Lonely
TTITLE2=John Lee Hooker - Dimples
TTITLE3=Eddie Taylor - Big Town Playboy
TTITLE4=Billy Boy Arnold - I Ain't Got You
TTITLE5=Jay McShann with Priscilla Bowman - Hands Off
TTITLE6=Pee Wee Crayton - The Telephone is Ringing
TTITLE7=Joe Buckner with Tommy Dean Orchestra - One More Mile
TTITLE8=Jimmy Reed - Come on Baby
TTITLE9=Floyd Jones - Any Old Lonesome Day
TTITLE10=Camille Howard - Business Woman
TTITLE11=Snooky Pryor - Someone to Love
TTITLE12=Pee Wee Crayton - A Frosty Night
TTITLE13=Jimmy Reed - Baby, Don't Say That No More
TTITLE14=John Lee Hooker - Trouble Blues
TTITLE15=L.C. McKinley - Down with It
TTITLE16=Eddie Taylor - Ride 'Em on Down
TTITLE17=Billy Boy Arnold - Don't Stay Out All Night
TTITLE18=Floyd Jones - Floyd's Blues
TTITLE19=Jimmy Reed - I Don't Go For That
EXTD=YEAR: 1955
EXTT0=
EXTT1=
EXTT2=
EXTT3=
EXTT4=
EXTT5=
EXTT6=
EXTT7=
EXTT8=
EXTT9=
EXTT10=
EXTT11=
EXTT12=
EXTT13=
EXTT14=
EXTT15=
EXTT16=
EXTT17=
EXTT18=
EXTT19=
PLAYORDER=
